<?xml version="1.0" encoding="iso-8859-1"?>
<!-- Uploaded to: SVG Repo, www.svgrepo.com, Generator: SVG Repo Mixer Tools -->
<svg height="800px" width="800px" version="1.1" id="Layer_1" xmlns="http://www.w3.org/2000/svg" xmlns:xlink="http://www.w3.org/1999/xlink" 
	 viewBox="0 0 451.277 451.277" xml:space="preserve">
<circle style="fill:#E05B49;" cx="225.638" cy="225.638" r="225.638"/>
<path style="opacity:0.1;enable-background:new    ;" d="M261.835,96.351h-49.363c-28.348,0-51.525,23.177-51.525,51.525v121.103
	h1.175l-24.681,13.351c0,0-18.617,11.612-18.617,29.806v42.781L214.906,451c3.558,0.166,7.134,0.271,10.733,0.271
	c107.569,0,197.496-75.289,220.115-176.03L269.78,99.266C267.618,97.292,264.75,96.351,261.835,96.351z M273.552,112.13l0.458,1.561
	c-0.407-0.094-0.657-0.133-0.657-0.133C273.45,113.055,273.487,112.604,273.552,112.13z"/>
<path style="fill:#64798A;" d="M182.39,257.065c0,0,0.136,0.155,0.205,0.232c2.141-1.527,3.853-3.111,5.176-4.597
	c2.889-3.241,4.409-7.476,4.409-11.818v-2.683c-12.481-15.849-20.564-40.192-20.564-67.681c0,0,1.077-18.315,20.111-20.111h17.313
	c4.381,0,8.744-0.587,12.955-1.796c4.457-1.279,9.793-3.397,13.904-6.823l32.321,10.774c0,0,10.055,6.823,11.492,17.956
	c0,27.52-8.1,51.885-20.604,67.733v2.631c0,4.342,1.52,8.577,4.409,11.818c1.324,1.486,3.035,3.07,5.17,4.597
	c0.068-0.077,0.204-0.231,0.204-0.231l1.534,1.825l18.713,10.105l1.21,5.12V133.812c0-1.737-0.287-3.466-0.86-5.105
	c-4.722-13.53-16.147-15.162-16.147-15.162c1.462-7.573-0.864-11.877-3.554-14.287c-2.171-1.944-5.037-2.928-7.951-2.928h-49.36
	c-28.345,0-51.537,23.192-51.537,51.537v126.247l1.206-5.12l18.712-10.105L182.39,257.065z"/>
<path style="fill:#F6C358;" d="M263.515,252.7c-2.889-3.241-4.409-7.476-4.409-11.818v-2.631c-0.411,0.521-0.784,1.113-1.204,1.615
	c-9.007,10.754-20.139,17.199-32.238,17.199c-12.118,0-23.265-6.464-32.279-17.249c-0.42-0.503-0.794-1.096-1.204-1.618v2.683
	c0,4.342-1.52,8.577-4.409,11.818c-1.324,1.487-3.035,3.07-5.176,4.597c0.209,0.236,0.623,0.707,1.358,1.6
	c2.215,2.692,6.666,8.515,12.033,17.59c9.207,3.569,19.187,5.574,29.655,5.574c10.467,0,20.447-2.005,29.653-5.574
	c5.369-9.077,9.821-14.9,12.036-17.592c0.735-0.894,1.149-1.364,1.357-1.599C266.55,255.77,264.839,254.185,263.515,252.7z"/>
<path style="fill:#FCD462;" d="M225.664,257.065c12.099,0,23.231-6.445,32.238-17.199c0.421-0.502,0.794-1.094,1.204-1.615
	c12.504-15.848,20.604-40.213,20.604-67.733c-1.436-11.132-11.492-17.956-11.492-17.956l-32.321-10.774
	c-4.111,3.426-9.447,5.544-13.904,6.823c-4.211,1.209-8.574,1.796-12.955,1.796h-17.313c-19.033,1.795-20.111,20.111-20.111,20.111
	c0,27.489,8.082,51.832,20.564,67.681c0.411,0.522,0.784,1.115,1.204,1.618C202.398,250.601,213.546,257.065,225.664,257.065z"/>
<path style="fill:#44C4A1;" d="M203.159,289.74c7.82,15.694,16.303,37.215,22.48,65.148c6.193-28.003,14.703-49.564,22.539-65.268
	c-7.219,1.837-14.741,2.913-22.538,2.913C217.878,292.533,210.355,291.548,203.159,289.74z"/>
<path style="fill:#31978C;" d="M195.985,276.487c2.261,3.822,4.68,8.248,7.174,13.253c7.196,1.808,14.719,2.793,22.481,2.793
	c7.798,0,15.319-1.076,22.538-2.913c2.473-4.956,4.872-9.34,7.114-13.132c-9.206,3.569-19.186,5.574-29.653,5.574
	C215.172,282.061,205.192,280.056,195.985,276.487z"/>
<path style="fill:#3A556A;" d="M185.145,307.176c-3.015-3.552-0.416-8.999,4.242-8.892l3.416,0.079l-20.451-22
	c-1.856-1.997-1.932-5.065-0.178-7.151l8.68-10.322l-18.712,10.105l-24.713,13.346c0,0-18.587,11.617-18.587,29.817v42.738h106.795
	c0-0.001,0-0.002,0-0.002L185.145,307.176z"/>
<path style="fill:#EBF0F3;" d="M203.159,289.74c-2.494-5.004-4.913-9.431-7.174-13.253c-5.367-9.075-9.819-14.898-12.033-17.59
	c-0.735-0.893-1.149-1.364-1.358-1.6c-0.068-0.077-0.205-0.232-0.205-0.232l-1.534,1.825l-8.68,10.322
	c-1.754,2.087-1.678,5.154,0.178,7.151l20.451,22l-3.416-0.079c-4.658-0.108-7.258,5.34-4.242,8.892l40.493,47.717l0.001-0.004
	C219.463,326.955,210.98,305.434,203.159,289.74z"/>
<path style="fill:#3A556A;" d="M313.849,282.341l-24.713-13.346l-18.713-10.105l8.68,10.322c1.755,2.087,1.678,5.154-0.178,7.151
	l-20.451,22l3.416-0.079c4.658-0.108,7.258,5.34,4.242,8.892l-40.496,47.72h0.004h106.794v-42.738
	C332.436,293.958,313.849,282.341,313.849,282.341z"/>
<path style="fill:#EBF0F3;" d="M261.892,298.284l-3.416,0.079l20.451-22c1.857-1.997,1.933-5.065,0.178-7.151l-8.68-10.322
	l-1.534-1.825c0,0-0.136,0.155-0.204,0.231c-0.208,0.235-0.621,0.705-1.357,1.599c-2.215,2.691-6.666,8.515-12.036,17.592
	c-2.242,3.792-4.641,8.177-7.114,13.132c-7.836,15.704-16.347,37.266-22.539,65.268l-0.001,0.005c0,0,0,0.002,0,0.003l40.496-47.72
	C269.149,303.624,266.55,298.177,261.892,298.284z"/>
</svg>